# xmcd
#
# Track frame offsets:
#	150
#	9358
#	21318
#	37994
#	55220
#	67312
#	86795
#	103422
#	120725
#	135025
#	148253
#	161258
#
# Disc length: 2309 seconds
#
# Revision: 0
# Processed by: cddbd v1.4PL0 Copyright (c) Steve Scherf et al.
# Submitted via: EasyCDDAExtractor 5.0.4.1
#
DISCID=a309030c
DTITLE=Totta's Bluesband - Saturday night boogie woogie
DYEAR=1983
DGENRE=Blues
TTITLE0=Saturday night's boogie woogie man
TTITLE1=Too late
TTITLE2=Bottom of the sea
TTITLE3=Just a feeling
TTITLE4=I'm a lover, not a fighter
TTITLE5=Bring it on home
TTITLE6=Stranger blues
TTITLE7=Bad bad whiskey
TTITLE8=The worlds in a tangle
TTITLE9=My love will never die
TTITLE10=Person to person
TTITLE11=Ain't your business
EXTD=
EXTT0=
EXTT1=
EXTT2=
EXTT3=
EXTT4=
EXTT5=
EXTT6=
EXTT7=
EXTT8=
EXTT9=
EXTT10=
EXTT11=
PLAYORDER=
